# xmcd
#
# Track frame offsets:
# 150
# 17992
# 29587
# 44935
# 59705
# 75245
# 87687
# 104532
# 118242
# 133495
# 146512
# 165565
# 183467
# 195942
#
# Disc length: 2766 seconds
#
#
# Revision: 0
# Processed by: cddbd v1.5.2PL0 Copyright (c) Steve Scherf et al.
# Submitted via: FreeRIP 2.96 
#
DISCID=d50acc0e
DTITLE=Chico Rey e Paraná - Sucessos de ouro Vol. 15 - Sucessos de ouro Vol. 15
DYEAR=2007
DGENRE=sertanejo
TTITLE0=Não são palavras lindas
TTITLE1=Espinho na cama
TTITLE2=Separados
TTITLE3=Pedacinhos
TTITLE4=As paredes são azuis
TTITLE5=Cordão de ouro
TTITLE6=Velha porteira
TTITLE7=Sonhos
TTITLE8=Viagem
TTITLE9=Saudade de arrasar
TTITLE10=Não diga nada
TTITLE11=Loira do carro branco/ Fazenda são francisco(maior proeza)
TTITLE12=Feitiço espanhol
TTITLE13=Destinos iguais
EXTD=emerson-u2@superig.com.br
EXTT0=
EXTT1=
EXTT2=
EXTT3=
EXTT4=
EXTT5=
EXTT6=
EXTT7=
EXTT8=
EXTT9=
EXTT10=
EXTT11=
EXTT12=
EXTT13=
PLAYORDER=
